<svg xmlns="http://www.w3.org/2000/svg" viewBox="0 0 512 512">
  <defs>
    <linearGradient id="grad1" x1="0%" y1="0%" x2="100%" y2="100%">
      <stop offset="0%" style="stop-color:#3b82f6;stop-opacity:1" />
      <stop offset="100%" style="stop-color:#10b981;stop-opacity:1" />
    </linearGradient>
  </defs>
  <rect width="512" height="512" rx="128" fill="url(#grad1)" />
  <path d="M256 130c-55 0-105 20-144 54l30 36c30-26 69-42 114-42s84 16 114 42l30-36c-39-34-89-54-144-54zm0 100c-29 0-55 10-76 27l76 93 76-93c-21-17-47-27-76-27z" fill="white" opacity="0.9"/>
  <path d="M256 380a20 20 0 1 0 0 40 20 20 0 1 0 0-40z" fill="white" />
</svg>